<svg xmlns="http://www.w3.org/2000/svg" xmlns:xlink="http://www.w3.org/1999/xlink" version="1.1" id="Layer_1" x="0px" y="0px" width="77.2727272727px" height="100px" viewBox="0 0 612 792" enable-background="new 0 0 612 792" xml:space="preserve">
<g>
	<path d="M370.645,341.895c0,0-31.399,54.199-77.999,54.199c-46.599,0-77.999-54.199-77.999-54.199s31.399-54.399,77.999-54.399   C339.245,287.496,370.645,341.895,370.645,341.895z M330.846,341.895c0-21-17.2-38.199-38.2-38.199   c-21,0-38.199,17.2-38.199,38.199c0,21,17.2,38.2,38.199,38.2C313.646,380.095,330.846,362.895,330.846,341.895z M292.646,324.695   c-9.4,0-17,8-17,17.2c0,9.4,7.6,17,17,17c9.2,0,17.2-7.6,17.2-17C309.846,332.695,301.846,324.695,292.646,324.695z"/>
</g>
</svg>